/* XPM */
static char *diamond_frame2[] = {
/* width height num_colors chars_per_pixel */
"    31   31       31            1",
/* colors */
". c None",
"# c #ced4ca",
"a c #cdeba3",
"b c #95dd30",
"c c #73bc1c",
"d c #83a757",
"e c #99d24c",
"f c #c9dea5",
"g c #f0f1ef",
"h c #9ae428",
"i c #86e21b",
"j c #67b60f",
"k c #7bdd10",
"l c #5cac0a",
"m c #98c15e",
"n c #bac3b0",
"o c #73c917",
"p c #689934",
"q c #58a40b",
"r c #63a411",
"s c #4c8c09",
"t c #396c06",
"u c #437a08",
"v c #294d07",
"w c #274308",
"x c #4c662f",
"y c #335a09",
"z c #1f3b08",
"A c #182d06",
"B c #356406",
"C c #5e8930",
/* pixels */
"..........fekikieee##..........",
"........g#mekkiihhbmn..........",
"........ggekkkkiibicm..........",
"........gnboibibiikoeng........",
"........gncokkikikikcmg........",
"........gmcokikkkibkodg........",
"........grljobibikiiija#.......",
".......##srlkkkkiikikom#.......",
".......#fssqokkkiibiikmng......",
".......#mqsqjikkkiikkkcmgg.....",
".......nmssslokikkiiiicefg.....",
".......ndssqqokikkbikboemg.....",
".......nsssqqjkkkbkkkibcrg.....",
"......#mssssqjobkkikiikorn#....",
".....g#dsssssjjkkkookckcjn#....",
".....g#dqqsssqqqqqsrsssssdn....",
".....g#msssssssutByyyyyywn#....",
".....g#mssssssstvvvvvvwwzn#....",
".......nrsssqsuBvwwvvvzwxg.....",
".......ndrssqstyvwvvvwwxdg.....",
".......nmssssutyvvwvvwzxng.....",
".......#fsrssuBBvvwvvvAdgg.....",
".......#fsssstBvvwwwwzCng......",
".......##rssstywvvwvwAdn.......",
"........grrssBvvvvwvwA##.......",
"........gmrstyvvvwwzvxgg.......",
"........gmpstyvvvvwzxdg........",
"........gnputvvvvvvzxng........",
"........ggdtBvvvvvvvd..........",
"........g#mCyvvvyxxdn..........",
"..........#mvvvvxxxn#..........",
};
