/* XPM */
static char * pkgclosed[] = {
"16 16 17 1",
" 	c None",
".	c #818181",
"X	c #040404",
"o	c #026D02",
"O	c #00D700",
"+	c #C0C0C0",
"@	c #417741",
"#	c #01A201",
"$	c #00FF00",
"%	c #028102",
"&	c #027702",
"*	c #026202",
"=	c #00C000",
"-	c #7F7F7F",
";	c #01C001",
":	c #034203",
">	c #418141",
"       .X       ",
"      .oOX      ",
"    +@#OOOo.    ",
"  .@#OOOOOOOo.  ",
".XOOOOOOOOOOOOX+",
".$%&#OOOOOOOo*=-",
".$$$;&#OOOo*===-",
".$$$$$;:o*=====.",
".$$$$$$$*======.",
".$$$$$$$*======.",
".$$$$$$$*======.",
".$$$$$$$*======.",
".;$$$$$$*======.",
" .%;$$$$*====*. ",
"   +>;$$*==*.   ",
"     +>;**.     "};
