/* XPM */
static char * core_add[] = {
"16 14 5 1",
" 	c None",
".	c None",
"+	c #AAFFAA",
"@	c #00FF00",
"#	c #72FF72",
".....+@@@.......",
".....+@@@.......",
".....+@@@.......",
".....+@@@.......",
".....+@@@.......",
"+++++#@@@++++++.",
"@@@@@@@@@@@@@@@.",
"@@@@@@@@@@@@@@@.",
"@@@@@@@@@@@@@@@.",
".....+@@@.......",
".....+@@@.......",
".....+@@@.......",
".....+@@@.......",
".....+@@@......."};
