/* XPM */
static char * core_remove[] = {
"16 14 8 1",
" 	c None",
".	c None",
"+	c #E3FFE3",
"@	c #AAFFAA",
"#	c #72FF72",
"$	c #00FF00",
"%	c #55FF55",
"&	c #1DFF1D",
"................",
"................",
"................",
"................",
".+@@@@@@@@@@@@..",
".#$$$$$$$$$$$$$.",
".%$$$$$$$$$$$$&.",
".%&$$$$$$$$$$$%.",
"..$$$$$$$$$$$$..",
"................",
"................",
"................",
"................",
"................"};
