/* XPM */
static char * core_cancel[] = {
"20 20 4 1",
" 	c None",
".	c None",
"+	c #04020C",
"@	c #040204",
"....................",
"....................",
"....................",
"....................",
"....................",
"....................",
"......+....+@.......",
"......@@..@@@+......",
".......@@.@@@.......",
".......@@@@@........",
"........@@@.........",
"........@@@@........",
".......@@@@@@.......",
".......@@.@@@@......",
"......@@...@@@@.....",
"......@.....@@......",
"....................",
"....................",
"....................",
"...................."};
