/* XPM */
static char *indexpixm[] = {
/* width height num_colors chars_per_pixel */
"    16    16        6            1",
/* colors */
". c #000000",
"# c None",
"a c #0000bf",
"b c #c0c0c0",
"c c #808080",
"d c #ffffff",
/* pixels */
"################",
"################",
"#####.caacccccc.",
"####.bbcccaabbc.",
"###.bbcaacccbcc.",
"##.caacccbbbccc.",
"#.bcccbbbbbcccc.",
"#cdbbbbbbddcccc.",
"#cdbbbbbbbdccc..",
"#cdbbbbbbddcc.a.",
"#cdddddddddc.a.#",
"aaaaaaaaaac.a.##",
"..aaaaaaaaaa.###",
"#...........####",
"################",
"################"
};
