/* XPM */
static char * pkgopen[] = {
"16 16 22 1",
" 	c None",
".	c #040404",
"X	c #818181",
"o	c #024202",
"O	c #C0C0C0",
"+	c #416141",
"@	c #016101",
"#	c #008000",
"$	c #026202",
"%	c #00C000",
"&	c #025202",
"*	c #00B000",
"=	c #00EF00",
"-	c #028102",
";	c #026102",
":	c #00A000",
">	c #00FF00",
",	c #01C001",
"<	c #034203",
"1	c #032303",
"2	c #009000",
"3	c #418141",
"        .       ",
"      X.o.      ",
"    O+@#$%$X    ",
"  X+@###$%%%$X  ",
"X.####@o&**%%%.O",
"X=-;oooo&:::$->>",
"X>>>,<11o2&->>>-",
"X>>>>>,<1->>>-oX",
"X>>>>>>>$;>-o#2X",
"X>>>>>>>$:.##:%X",
"X>>>>>>>$%22*%%X",
"X>>>>>>>$%%%%%%X",
"X,>>>>>>$%%%%%%X",
" X-,>>>>$%%%%$X ",
"   O3,>>$%%$X   ",
"     O3,$$X     "};
