/* XPM */
static char * advantio[] = {
"65 61 392 2",
"  	c None",
". 	c #FFFFFF",
"+ 	c #FFFDFD",
"@ 	c #FF4343",
"# 	c #FF2A2A",
"$ 	c #FF8F8F",
"% 	c #FFBFBF",
"& 	c #FF0202",
"* 	c #FF0000",
"= 	c #FF0101",
"- 	c #FF1B1B",
"; 	c #FFF9F9",
"> 	c #FFFEFE",
", 	c #FF6464",
"' 	c #FF0404",
") 	c #FFA7A7",
"! 	c #FFE9E9",
"~ 	c #FF1818",
"{ 	c #FF4141",
"] 	c #FFFAFA",
"^ 	c #FF8080",
"/ 	c #FF0707",
"( 	c #FF0505",
"_ 	c #FFC8C8",
": 	c #FF3C3C",
"< 	c #FF6363",
"[ 	c #FFD8D8",
"} 	c #FF0B0B",
"| 	c #FF0303",
"1 	c #FF0D0D",
"2 	c #FFE2E2",
"3 	c #FF8686",
"4 	c #FFF8F8",
"5 	c #FF3333",
"6 	c #FF2525",
"7 	c #FFF4F4",
"8 	c #FFCCCC",
"9 	c #FFAAAA",
"0 	c #FF6D6D",
"a 	c #FF4242",
"b 	c #FFFCFC",
"c 	c #FFE8E8",
"d 	c #FF1919",
"e 	c #FFBBBB",
"f 	c #FFA0A0",
"g 	c #FF6262",
"h 	c #FF3737",
"i 	c #FF0808",
"j 	c #FFEBEB",
"k 	c #FFD2D2",
"l 	c #FF0F0F",
"m 	c #FF8989",
"n 	c #FF6767",
"o 	c #FF8D8D",
"p 	c #FF2020",
"q 	c #FF2929",
"r 	c #FFF1F1",
"s 	c #FFE4E4",
"t 	c #FF1313",
"u 	c #FFDDDD",
"v 	c #FF8585",
"w 	c #FFAEAE",
"x 	c #FF9696",
"y 	c #FF5757",
"z 	c #FFDADA",
"A 	c #FF1010",
"B 	c #FF2F2F",
"C 	c #FF0606",
"D 	c #FFBDBD",
"E 	c #D50202",
"F 	c #3B3233",
"G 	c #363637",
"H 	c #611C1E",
"I 	c #FF6A6A",
"J 	c #FF5A5A",
"K 	c #7D0102",
"L 	c #020204",
"M 	c #080204",
"N 	c #D40001",
"O 	c #FF1212",
"P 	c #FFE5E5",
"Q 	c #FFE0E0",
"R 	c #F20000",
"S 	c #250203",
"T 	c #720102",
"U 	c #FF8C8C",
"V 	c #B90707",
"W 	c #111111",
"X 	c #030204",
"Y 	c #1F0203",
"Z 	c #EE0000",
"` 	c #FF2828",
" .	c #FFF6F6",
"..	c #FF2727",
"+.	c #7F3333",
"@.	c #1C1C1D",
"#.	c #0D0C0D",
"$.	c #040405",
"%.	c #0C0C0D",
"&.	c #494949",
"*.	c #D03232",
"=.	c #FFB3B3",
"-.	c #F81B1B",
";.	c #D0BFBF",
">.	c #6E6E6D",
",.	c #080708",
"'.	c #060608",
").	c #6B6B6B",
"!.	c #C1C1C1",
"~.	c #E0A4A3",
"{.	c #FF4949",
"].	c #FF4B4B",
"^.	c #C64343",
"/.	c #9E9E9D",
"(.	c #F2F2F0",
"_.	c #252526",
":.	c #040305",
"<.	c #212122",
"[.	c #E1E1E0",
"}.	c #C3C3C2",
"|.	c #665D5D",
"1.	c #DF1616",
"2.	c #FFD3D3",
"3.	c #FFD9D9",
"4.	c #FE0202",
"5.	c #421C1D",
"6.	c #444444",
"7.	c #B0AFAF",
"8.	c #5A5A59",
"9.	c #1E1E1D",
"0.	c #373636",
"a.	c #E6E6E5",
"b.	c #343435",
"c.	c #181819",
"d.	c #9E3535",
"e.	c #FE0000",
"f.	c #FF6B6B",
"g.	c #FF7676",
"h.	c #F53A3A",
"i.	c #323232",
"j.	c #100F10",
"k.	c #6F6C67",
"l.	c #605127",
"m.	c #513F07",
"n.	c #4C3F0E",
"o.	c #B9B6AB",
"p.	c #151516",
"q.	c #170506",
"r.	c #F50808",
"s.	c #FF1717",
"t.	c #FFEDED",
"u.	c #FF2222",
"v.	c #A64A4B",
"w.	c #969696",
"x.	c #2F2209",
"y.	c #A2770F",
"z.	c #E5B00B",
"A.	c #E5B70A",
"B.	c #C59B0A",
"C.	c #D8B21F",
"D.	c #826C1D",
"E.	c #181305",
"F.	c #6B6B6A",
"G.	c #FA6161",
"H.	c #FF8E8E",
"I.	c #FFA3A3",
"J.	c #E00000",
"K.	c #200B0D",
"L.	c #C2B28D",
"M.	c #C28F13",
"N.	c #E6B00A",
"O.	c #EABB0B",
"P.	c #EAC40C",
"Q.	c #F0D01C",
"R.	c #F3D533",
"S.	c #F3D216",
"T.	c #E8BF0E",
"U.	c #DFBD48",
"V.	c #C2783C",
"W.	c #FA0200",
"X.	c #FF2626",
"Y.	c #FF3F3F",
"Z.	c #920405",
"`.	c #322205",
" +	c #B67E09",
".+	c #DAA009",
"++	c #EAB60B",
"@+	c #E9BF0C",
"#+	c #ECCB16",
"$+	c #F3D541",
"%+	c #F6D934",
"&+	c #F6D812",
"*+	c #E8C70E",
"=+	c #E6B41E",
"-+	c #E81D02",
";+	c #FFCFCF",
">+	c #714445",
",+	c #6D4B06",
"'+	c #C58B09",
")+	c #E5AC0A",
"!+	c #EDB80B",
"~+	c #E9C40D",
"{+	c #F0D023",
"]+	c #F6D833",
"^+	c #F6D60F",
"/+	c #F5D610",
"(+	c #D5AE0C",
"_+	c #C69408",
":+	c #D49B08",
"<+	c #912204",
"[+	c #FF4D4D",
"}+	c #FF6868",
"|+	c #FF3E3E",
"1+	c #716D6E",
"2+	c #191206",
"3+	c #976B07",
"4+	c #E2AE0A",
"5+	c #EDBF0B",
"6+	c #EDCB18",
"7+	c #F1D41D",
"8+	c #F0CF0F",
"9+	c #D4B00D",
"0+	c #BC8D0A",
"a+	c #D09409",
"b+	c #D59A09",
"c+	c #B38419",
"d+	c #1C1008",
"e+	c #EB0000",
"f+	c #FFD1D1",
"g+	c #FF9999",
"h+	c #717173",
"i+	c #070606",
"j+	c #94876C",
"k+	c #9A6F11",
"l+	c #BB9308",
"m+	c #C8A40D",
"n+	c #BD930B",
"o+	c #BB8608",
"p+	c #BF8409",
"q+	c #CC8E08",
"r+	c #C6921B",
"s+	c #C4AD7B",
"t+	c #B8B3AA",
"u+	c #313131",
"v+	c #8F0102",
"w+	c #FF6E6E",
"x+	c #FF9494",
"y+	c #0F0F10",
"z+	c #B7B6B5",
"A+	c #AD9A7A",
"B+	c #A4730F",
"C+	c #CC960A",
"D+	c #CD9109",
"E+	c #C58809",
"F+	c #BB8109",
"G+	c #BA9544",
"H+	c #BDB6A8",
"I+	c #CACAC9",
"J+	c #D7D7D7",
"K+	c #777776",
"L+	c #320103",
"M+	c #F50000",
"N+	c #FF1414",
"O+	c #FFEAEA",
"P+	c #FF3232",
"Q+	c #161618",
"R+	c #101011",
"S+	c #C6C6C5",
"T+	c #C0C0BE",
"U+	c #B3A896",
"V+	c #A58446",
"W+	c #A1762B",
"X+	c #A88543",
"Y+	c #B7A480",
"Z+	c #BEBBB8",
"`+	c #CFCFCF",
" @	c #F4F4F3",
".@	c #FDFDFB",
"+@	c #E4E4E4",
"@@	c #1B191A",
"#@	c #BB0001",
"$@	c #FF9393",
"%@	c #FF5F5F",
"&@	c #FF5050",
"*@	c #FF7575",
"=@	c #E68383",
"-@	c #B35051",
";@	c #C56262",
">@	c #F99696",
",@	c #EE8A8A",
"'@	c #EC8989",
")@	c #EC8888",
"!@	c #EE8B8B",
"~@	c #FF9C9B",
"{@	c #CE6B6B",
"]@	c #DA5050",
"^@	c #FF8787",
"/@	c #FFACAC",
"(@	c #FFA1A1",
"_@	c #FF7F7F",
":@	c #FFB9B9",
"<@	c #FF3636",
"[@	c #FFD7D7",
"}@	c #FFFBFB",
"|@	c #FFAFAF",
"1@	c #FFF2F2",
"2@	c #FFB5B5",
"3@	c #FFEEEE",
"4@	c #FFABAB",
"5@	c #FFDFDF",
"6@	c #FFB0B0",
"7@	c #FFCBCB",
"8@	c #FF9595",
"9@	c #FF3535",
"0@	c #FFECEC",
"a@	c #FF9898",
"b@	c #FFC1C1",
"c@	c #FF4444",
"d@	c #FF5353",
"e@	c #FFADAD",
"f@	c #FF2D2D",
"g@	c #FF5555",
"h@	c #FF6060",
"i@	c #FF7E7E",
"j@	c #FF4F4F",
"k@	c #FF6161",
"l@	c #FF7878",
"m@	c #FFA8A8",
"n@	c #FF2121",
"o@	c #FFE3E3",
"p@	c #FF8282",
"q@	c #FF5656",
"r@	c #FF6565",
"s@	c #FF6666",
"t@	c #FF4A4A",
"u@	c #FFC7C7",
"v@	c #FF4C4C",
"w@	c #FFDBDB",
"x@	c #FF6C6C",
"y@	c #FFC4C4",
"z@	c #FF3131",
"A@	c #FFF7F7",
"B@	c #FFC0C0",
"C@	c #FFD0D0",
"D@	c #FF2C2C",
"E@	c #FF9F9F",
"F@	c #FF3030",
"G@	c #FF1C1C",
"H@	c #FF7070",
"I@	c #FF4747",
"J@	c #FF8383",
"K@	c #FF8484",
"L@	c #FF4646",
"M@	c #FFC6C6",
"N@	c #FFCACA",
"O@	c #FF9A9A",
"P@	c #FFB7B7",
"Q@	c #FF8B8B",
"R@	c #FFF3F3",
"S@	c #FF9090",
"T@	c #FFE1E1",
"U@	c #FFC9C9",
"V@	c #FF7777",
"W@	c #FFE7E7",
"X@	c #FF7B7B",
"Y@	c #FF2323",
"Z@	c #FF9C9C",
"`@	c #FFA6A6",
" #	c #FFC3C3",
".#	c #FF0909",
"+#	c #FF2E2E",
"@#	c #FF7979",
"##	c #FF8A8A",
"$#	c #FF1D1D",
"%#	c #FFDCDC",
"&#	c #FF9E9E",
"*#	c #FF1F1F",
"=#	c #FFB8B8",
"-#	c #FF5454",
";#	c #FFB4B4",
">#	c #FFF0F0",
",#	c #FFCECE",
"'#	c #FF9D9D",
")#	c #FFD5D5",
"!#	c #FFB6B6",
"~#	c #FF0A0A",
"{#	c #FF2424",
"]#	c #FF1616",
"^#	c #FF0E0E",
"/#	c #FFB1B1",
"(#	c #FF0C0C",
"_#	c #FFD6D6",
". . . . . . . . . . . . . . . . . . . . . . . . . . . . . . . . . . . . . . . . . . . . . . . . . . . . . . . . . . . . . . . . . ",
". . . . . . . . . . . . . . . . . . . . . . . . . . . . + @ # # # # # $ . . . . . . . . . . . . . . . . . . . . . . . . . . . . . ",
". . . . . . . . . . . . . . . . . . . . . . . . . . . . % & * * * = = - ; . . . . . . . . . . . . . . . . . . . . . . . . . . . . ",
". . . . . . . . . . . . . . . . . . . . . . . . . . . > , * * * * = ' = ) . . . . . . . . . . . . . . . . . . . . . . . . . . . . ",
". . . . . . . . . . . . . . . . . . . . . . . . . . . ! ~ * * * * * * * { ] . . . . . . . . . . . . . . . . . . . . . . . . . . . ",
". . . . . . . . . . . . . . . . . . . . . . . . . . . ^ * * * * * * / * ( _ . . . . . . . . . . . . . . . . . . . . . . . . . . . ",
". . . . . . . . . . . . . . . . . . . . . . . . . . . : * * * * * * ' * * < . . . . . . . . . . . . . . . . . . . . . . . . . . . ",
". . . . . . . . . . . . . . . . . . . . . . . . . . [ } * * * * * * | * * 1 2 . . . . . . . . . . . . . . . . . . . . . . . . . . ",
". . . . . . . . . . . . . . . . . . . . . . . . . . $ * * * * * * * * * * * 3 . . . . . . . . . . . . . . . . . . . . . . . . . . ",
". . . . . . . . . . . . . . . . . . . . . . . . . 4 5 * * * * * * * * * * * 6 7 . . . . . . . . . . . . . . . . . . . . . . . . . ",
". . . . . . . . . . . . . . . . . . . . . . . . . 8 & * * * * * * * * * * * * 9 . . . . . . . . . . . . . . . . . . . . . . . . . ",
". . . . . . . . . . . . . . . . . . . . . . . . . 0 * * * * * * * * * * * * * a b . . . . . . . . . . . . . . . . . . . . . . . . ",
". . . . . . . . . . . . . . . . . . . . . . . . c d * * * * * * * * * * * * * / e . . . . . . . . . . . . . . . . . . . . . . . . ",
". . . . . . . . . . . . . . . . . . . . . . . . f = * * * * * * * * * * * * * * g . . . . . . . . . . . . . . . . . . . . . . . . ",
". . . . . . . . . . . . . . . . . . . . . . . > h * * * * * * * * * * * * * * * i j . . . . . . . . . . . . . . . . . . . . . . . ",
". . . . . . . . . . . . . . . . . . . . . . . k & * * * l = * * * * * * * * * * * m . . . . . . . . . . . . . . . . . . . . . . . ",
". . . . . . . . . . . . . . . . . . . . . . . n * * * * o p * * * * * * * * * * * q r . . . . . . . . . . . . . . . . . . . . . . ",
". . . . . . . . . . . . . . . . . . . . . . s d * * * t u v * * * * * * * * * * * = w . . . . . . . . . . . . . . . . . . . . . . ",
". . . . . . . . . . . . . . . . . . . . . . x * * * * y . z A * * * * * * * * * * * { . . . . . . . . . . . . . . . . . . . . . . ",
". . . . . . . . . . . . . . . . . . . . . b B * * * & e . . y * * * * * * * * * * * C 8 . . . . . . . . . . . . . . . . . . . . . ",
". . . . . . . . . . . . . . . . . . . . . D ' * * * E F G G H * * * * * * * * * * * * I . . . . . . . . . . . . . . . . . . . . . ",
". . . . . . . . . . . . . . . . . . . . + J * * * * K L L L M N * * * * * * * * * * * O P . . . . . . . . . . . . . . . . . . . . ",
". . . . . . . . . . . . . . . . . . . . Q 1 * * * R S L L L L T * * * * * * * * * * * * U . . . . . . . . . . . . . . . . . . . . ",
". . . . . . . . . . . . . . . . . . . . 3 * * * * V W L L L X Y Z * * * * * * * * * * * `  .. . . . . . . . . . . . . . . . . . . ",
". . . . . . . . . . . . . . . . . . . 7 ..* * * = +.@.#.L $.%.&.*.* * * * * * * * * * * | w . . . . . . . . . . . . . . . . . . . ",
". . . . . . . . . . . . . . . . . . . =.| * * * -.;.>.,.L '.).!.~.| * * * * * * * * * * * {.b . . . . . . . . . . . . . . . . . . ",
". . . . . . . . . . . . . . . . . . + ].* * * * ^./.(._.:.<.[.}.|.1.* * * * * * * * * = * = 2.. . . . . . . . . . . . . . . . . . ",
". . . . . . . . . . . . . . . . . . 3.C * * * 4.5.6.7.8.9.0.a.b.c.d.e.* * * * * * * * * * * f.. . . . . . . . . . . . . . . . . . ",
". . . . . . . . . . . . . . . . . . g.* * * * h.i.j.k.l.m.n.o.p.L q.r.* * * * * * * * * * * s.P . . . . . . . . . . . . . . . . . ",
". . . . . . . . . . . . . . . . . t.u.* * * e.v.w.x.y.z.A.B.C.D.E.F.G.* * * * * * * * * * * * H.. . . . . . . . . . . . . . . . . ",
". . . . . . . . . . . . . . . . . I.* * * * J.K.L.M.N.O.P.Q.R.S.T.U.V.W.* * * * * * * * * * * X.b . . . . . . . . . . . . . . . . ",
". . . . . . . . . . . . . . . . > Y.* * * * Z.`. +.+++@+#+$+%+&+&+*+=+-+* * * * * * * * * * * & =.. . . . . . . . . . . . . . . . ",
". . . . . . . . . . . . . . . . ;+| * * * * >+,+'+)+!+~+{+]+^+/+(+_+:+<+* * * * * * * * * * * * [+b . . . . . . . . . . . . . . . ",
". . . . . . . . . . . . . . . > }+* * * * |+1+2+3+4+5+6+7+8+9+0+a+b+c+d+e+* * * * * * * * * * * / f+. . . . . . . . . . . . . . . ",
". . . . . . . . . . . . . . . ! d * * * * g+h+i+j+k+l+m+n+o+p+q+r+s+t+u+v+* * * * * * * * * * * * w+. . . . . . . . . . . . . . . ",
". . . . . . . . . . . . . . . x+* * * * d j h+y+z+A+B+C+D+E+F+G+H+I+J+K+L+M+* * * * * * * = * * * N+O+. . . . . . . . . . . . . . ",
". . . . . . . . . . . . . . . P+* * * * }+J+Q+R+S+T+U+V+W+X+Y+Z+`+ @.@+@@@#@* * * * * & | & * * * = $@. . . . . . . . . . . . . . ",
". . . . . . . . . . . . . . . %@&@&@&@&@*@=@-@;@>@,@'@)@)@)@)@!@>@~@~@~@{@]@&@&@&@&@&@&@&@&@&@&@&@&@^@. . . . . . . . . . . . . . ",
". . . . . /@(@. . . . . . . . c _@> . . . . . . . . . . . . . . . . . . . . . . . . . . . [ o . . . . :@/@. . . . . . . . . . . . ",
". . . . . <@6 4 . . . . . [@^@f |++ . . }@|@1@O+2@+ . . . 3@x+4@|@ .. . . 5@6@v 7@. . . . 8@9@0@. . . % =.. . . . 7 a@a@7 . . . . ",
". . . . b@c@d@e@. . . . j f@m g@|++ . . > h@(@^ i@. . . . j@k@l@- c . . . m@n@_@u.+ . . . ^ ..o@. . . x p@. . . }@q@r@s@g@}@. . . ",
". . . > h@6 f@t@}@. . . u@v@. z @ + . . . % [+h w@. . . . ..0@b B c . . . m@x@1@` b . . . y@d@. . . . x p@. . . j z@ .A@z@O+. . . ",
". . . Q n@e B@# C@. . . P D@E@}+|++ . . . b F@].. . . . . { p@H.G@c . . . m@H@1@` b . . . y@d@. . . . x p@. . . ; I@J@K@L@4 . . . ",
". . . f+(@> . 6@M@. . . . N@}+O@(@> . . . . P@u@. . . . . u g.Q@o R@. . . k 2@4 S@+ . . . T@) . . . . U@% . . . . s l@V@W@. . . . ",
". . . . . . . . . . . . . . . . . . . . . . . . . . . . . . . . . . . . . . . . . . . . . . . . . . . . . . . . . . . . . . . . . ",
". . . . . . . . . . . X@O O O O Y@O@Z@Z@Z@Z@Z@Z@Z@Z@Z@Z@Z@Z@Z@Z@Z@Z@Z@Z@Z@Z@Z@Z@x+s.O O t O O O O O O O O N+D . . . . . . . . . . ",
". . . . . . . . . . t.Y@* * * * s@. . . . . . . . . . . . . . . . . . . . . . . . @ * * * * * * * * * * * * q@. . . . . . . . . . ",
". . . . . . . . . . `@* * * * /  #. . . . . . . . . . . . . . . . . . . . . . . . /@& * * * * * * * * * * * .#z . . . . . . . . . ",
". . . . . . . . . > Y.* * * * +#A@. . . . . . . . . . . . . . . . . . . . . . . . 3@p * * * * * * * * * * * * @#. . . . . . . . . ",
". . . . . . . . . N@C * * * * ##. . . . . . . . . . . . . . . . . . . . . . . . . . @#* * * * * * * * * * * * $#t.. . . . . . . . ",
". . . . . . . . > x@* * * * } %#. . . . . . . . . . . . . . . . . . . . . . . . . . [ ' * * * * * * * * * * * * &#. . . . . . . . ",
". . . . . . . . O+s.* * * * t@}@. . . . . . . . . . . . . . . . . . . . . . . . . . b c@* * * * * * * * * * * * <@] . . . . . . . ",
". . . . . . . . U * * * * * g+. . . . . . . . . . . . . . . . . . . . . . . . . . . . &#* * * * * * * * * * * * C e . . . . . . . ",
". . . . . . . c *#* * * * (  #. . . . . . . . . . . . . . . . . . . . . . . . . . . . ;+.#* * * * * * * * * * * * [++ . . . . . . ",
". . . . . . + r@* * * * * | =#. . . . . . . . . . . . . . . . . . . . . . . . . . . . 2 A * * * * * * * * * * * * * 6@. . . . . . ",
". . . . . ; H.| * * * * * * -#; . . . . . . . . . . . . . . . . . . . . . . . . . . . e@| * * * * * * * * * * * * * N+;#b . . . . ",
". >#,#e '#t@& * * * * * * * * v@(@:@B@C@)#. . . . . . . . . . . . . . . . 1@C@;+D :@x $#* * * * * * * * * * * * * * * = I@U !#f+4 ",
". 6@.#= * * * * * * * * * * * * * * | ~#{#. . . . . . . . . . . . . . . . e@~#.#& * * * * * * * * * * * * * * * * * * * * * * ]#z ",
". e@* * * * * * * * * * * * * * * * * * - . . . . . . . . . . . . . . . . m@* * * * * * * * * * * * * * * * * * * * * * * * * ^#3.",
". /#^#= * * * * * * * * * * * * * * * ' ` . . . . . . . . . . . . . . . . e@^#(#* * * * * * * * * * * * * * * * * * * * * ^#^#- w@",
". R@3._ M@M@M@M@M@M@M@M@M@M@M@M@M@M@M@7@u . . . . . . . . . . . . . . . . 1@3._#M@M@M@M@M@M@M@M@M@M@M@M@M@M@M@M@M@M@M@M@M@3.3.w@; "};
