/* XPM */
static char * procpixmap[] = {
"16 16 7 1",
" 	c None",
".	c #000000",
"X	c #808080",
"o	c #FFFFFF",
"O	c #BF0000",
"+	c #C0C0C0",
"@	c #FF0000",
"       ....     ",
"      .Xooo.    ",
"OOOO   .X+oo.   ",
"OOO.O.  .X+oo.  ",
" OO@OO. ..X+oo. ",
"  OO@O@.o+.X+.X.",
"   OOOO.oo+..XX.",
"    O@@@.oo++XX.",
"    .OOO.ooooo. ",
"    .+O..oooo.  ",
"    .X++o.oo.   ",
"     .X++oo.    ",
"      .X++.     ",
"       .X.+.    ",
"        ..o+.   ",
"         ...    "};
