/* XPM */
static char *table_rowcount[] = {
"32 32 12 1",
" 	c None",
".	c None",
"+	c #555555",
"@	c #0000FF",
"#	c #8E8E8E",
"$	c #727272",
"%	c #E3E3E3",
"&	c #1D1D1D",
"*	c #AAAAAA",
"=	c #000000",
"-	c #393939",
";	c #C7C7C7",
"................................",
"................................",
"...+++..........................",
"...@@@..........................",
"....+@..........................",
"....+@..........................",
"....+@..........................",
"....+@..........................",
"....+@..........................",
"....+@..........................",
"....+@.......#+$%...............",
"....+@......&@@@&%..............",
"...........*=+.*@$..............",
"...........#+%..@+..............",
"...............#@#..............",
"..............*=&...............",
".............*=&%...............",
"............#@-%................",
"...........*@@+++#..............",
"...........*@@@@@+..............",
"........................$+#.....",
".......................+@@@$....",
".......................+$.-=....",
"........................%*&&....",
"........................*==$....",
"........................%*&@;...",
"..........................%@+...",
"......................+@%.%@+...",
"......................#@&+&@;...",
".......................#&=&*....",
"................................",
"................................"};
