/* XPM */
static char * stop_xpm[] = {
"20 20 18 1",
" 	c None",
".	c #D74848",
"+	c #FF6060",
"@	c #D75050",
"#	c #FF5858",
"$	c #FF4040",
"%	c #CF5050",
"&	c #FF5050",
"*	c #FF0000",
"=	c #D35050",
"-	c #FF1010",
";	c #FFFFFF",
">	c #FF1414",
",	c #FF3C3C",
"'	c #FF3434",
")	c #FF2020",
"!	c #FF6464",
"~	c #FF1818",
"      .++++++.      ",
"     @#$$$$$$#@     ",
"    %&********&%    ",
"   =&**********&=   ",
"  %&************&%  ",
" @&**************&@ ",
".#-;;>;;;,&;+';;,*#.",
"+$;)*&*;)*;*;;+*;*$+",
"+$+$***;)*;*;;+*;*$+",
"+$*;,**;)*;*;;;;!*$+",
"+$**!,*;)*;*;;;***$+",
"+$***;*;)*;*;;;***$+",
"+$$-*;*;)*;*;;;***$+",
".#-;;>*;~*&;+';***#.",
" @&**************&@ ",
"  %&************&%  ",
"   =&**********&=   ",
"    %&********&%    ",
"     @#$$$$$$#@     ",
"      .++++++.      "};
