/* XPM */
static char * triggerpixmap[] = {
"16 16 10 1",
" 	c None",
".	c #000000000000",
"X	c #808080808080",
"o	c #FFFFFFFFFFFF",
"O	c #BFBF00000000",
"+	c #C0C0C0C0C0C0",
"@	c #FFFFFFFF0000",
"#	c #FFFF00000000",
"$	c #999999999999",
"%	c #333399999999",
"       ....     ",
"      .Xooo.    ",
"OOOO   .X+oo.   ",
"OOO.O.  .X+oo.@ ",
" OO#OO. ..X+@@$ ",
"  OO#O@.o+.@@$X.",
"   OOO@$%@@@$XX.",
"    O@@$@@@$+XX.",
"    @@@@@@$ooo. ",
"   @@@@@@$ooo.  ",
"  @@$X@@$.oo.   ",
" @@$ .@$+oo.    ",
"@$    $X++.     ",
"       .X.+.    ",
"        ..o+.   ",
"         ...    "};
